HIERARCHY
ROOT Hips
{
	OFFSET -3.958830 18.904000 13.208200
	CHANNELS 6 Xposition Yposition Zposition Zrotation Yrotation Xrotation 
	JOINT LHipJoint
	{
		OFFSET 0.000000 0.000000 0.000000
		CHANNELS 3 Zrotation Yrotation Xrotation
		JOINT LeftUpLeg
		{
			OFFSET 1.800000 -1.400000 0.085000
			CHANNELS 3 Zrotation Yrotation Xrotation
			JOINT LeftLeg
			{
				OFFSET 2.215000 -6.000000 0.000000
				CHANNELS 3 Zrotation Yrotation Xrotation
				JOINT LeftFoot
				{
					OFFSET 2.500000 -6.900000 0.000000
					CHANNELS 3 Zrotation Yrotation Xrotation
					JOINT LeftToeBase
					{
						OFFSET 0.200000 -0.500000 1.950000
						CHANNELS 3 Zrotation Yrotation Xrotation
						End Site
						{
							OFFSET 0.000000 0.000000 0.000000
						}
					}
				}
			}
		}
	}
	JOINT RHipJoint
	{
		OFFSET 0.000000 0.000000 0.000000
		CHANNELS 3 Zrotation Yrotation Xrotation
		JOINT RightUpLeg
		{
			OFFSET -1.800000 -1.400000 0.085000
			CHANNELS 3 Zrotation Yrotation Xrotation
			JOINT RightLeg
			{
				OFFSET -2.215000 -6.000000 0.000000
				CHANNELS 3 Zrotation Yrotation Xrotation
				JOINT RightFoot
				{
					OFFSET -2.500000 -6.900000 0.000000
					CHANNELS 3 Zrotation Yrotation Xrotation
					JOINT RightToeBase
					{
						OFFSET -0.200000 -0.500000 1.950000
						CHANNELS 3 Zrotation Yrotation Xrotation
						End Site
						{
							OFFSET 0.000000 0.000000 0.000000
						}
					}
				}
			}
		}
	}
	JOINT LowerBack
	{
		OFFSET 0.000000 0.000000 0.000000
		CHANNELS 3 Zrotation Yrotation Xrotation
		JOINT Spine
		{
			OFFSET -0.087000 1.940000 -0.288900
			CHANNELS 3 Zrotation Yrotation Xrotation
			JOINT Spine1
			{
				OFFSET 0.000000 1.950000 0.060000
				CHANNELS 3 Zrotation Yrotation Xrotation
				JOINT Neck
				{
					OFFSET 0.000000 0.000000 0.000000
					CHANNELS 3 Zrotation Yrotation Xrotation
					JOINT Neck1
					{
						OFFSET 0.000000 1.600000 0.340000
						CHANNELS 3 Zrotation Yrotation Xrotation
						JOINT Head
						{
							OFFSET 0.000000 1.667000 -0.240000
							CHANNELS 3 Zrotation Yrotation Xrotation
							End Site
							{
								OFFSET 0.000000 0.000000 0.000000
							}
						}
					}
				}
				JOINT LeftShoulder
				{
					OFFSET 0.000000 0.000000 0.000000
					CHANNELS 3 Zrotation Yrotation Xrotation
					JOINT LeftArm
					{
						OFFSET 2.700000 1.550000 -0.730000
						CHANNELS 3 Zrotation Yrotation Xrotation
						JOINT LeftForeArm
						{
							OFFSET 5.450000 0.000000 0.000000
							CHANNELS 3 Zrotation Yrotation Xrotation
							JOINT LeftHand
							{
								OFFSET 3.450000 0.000000 0.000000
								CHANNELS 3 Zrotation Yrotation Xrotation
								JOINT LeftHandIndex1
								{
									OFFSET 0.750000 0.000000 0.000000
									CHANNELS 3 Zrotation Yrotation Xrotation
									End Site
									{
										OFFSET 0.000000 0.000000 0.000000
									}
								}
							}
						}
					}
				}
				JOINT RightShoulder
				{
					OFFSET 0.000000 0.000000 0.000000
					CHANNELS 3 Zrotation Yrotation Xrotation
					JOINT RightArm
					{
						OFFSET -2.700000 1.550000 -0.730000
						CHANNELS 3 Zrotation Yrotation Xrotation
						JOINT RightForeArm
						{
							OFFSET -5.450000 0.000000 0.000000
							CHANNELS 3 Zrotation Yrotation Xrotation
							JOINT RightHand
							{
								OFFSET -3.450000 0.000000 0.000000
								CHANNELS 3 Zrotation Yrotation Xrotation
								JOINT RightHandIndex1
								{
									OFFSET -0.750000 0.000000 0.000000
									CHANNELS 3 Zrotation Yrotation Xrotation
									End Site
									{
										OFFSET 0.000000 0.000000 0.000000
									}
								}
							}
						}
					}
				}
			}
		}
	}
}
MOTION
Frames: 10
Frame Time: 0.016667
-2.921630 17.943330 -2.191380 -6.561289 -5.931355 -12.190841 -14.489408 13.865657 3.381850 30.679200 -0.440359 -4.157360 -6.038986 8.760676 14.998525 0.607086 5.967191 2.605602 0.291090 -0.039940 0.369750 18.562109 -11.364117 2.391842 -11.051900 -1.365706 -10.157710 8.028619 -7.650292 18.651925 -0.854220 -3.417648 3.283789 -0.584760 0.043380 0.256830 -4.746440 -2.907579 -8.382774 6.677581 -1.991271 1.208529 -27.091201 -0.312939 1.485156 6.692507 -5.979428 -29.682375 -29.913117 12.185518 63.357286 17.470660 -8.206740 -13.366910 13.831824 -24.462310 7.735932 -2.141949 -38.585731 6.003357 90.407353 -41.319793 -37.457069 -3.223796 2.074421 1.022900 -0.447280 0.662670 0.328470 -25.242635 39.507437 8.961659 -24.354064 4.460150 -3.284841 -8.665357 -9.077440 1.314283 3.444305 0.265805 0.125200 0.285350 -0.206310 0.057620 
-2.941970 17.955630 -2.283350 -6.781850 -3.394110 -15.180547 -14.376782 13.575576 3.093866 30.959452 -0.328857 -2.978444 -4.841156 8.525047 15.599409 0.556576 5.928790 2.636570 0.337500 0.032160 0.370000 18.747588 -11.549063 2.285463 -12.570068 -1.995425 -7.574153 9.080250 -8.457713 19.799715 -0.931978 -3.956381 3.110858 -0.495470 0.038320 0.174390 -5.243590 -2.289634 -8.096542 5.861755 -4.745507 5.032092 -27.788675 -1.402505 5.424263 6.117951 -8.056677 -28.160639 -33.601519 12.761124 57.627194 22.162890 -7.498620 -17.668050 15.548898 -25.408699 6.779817 1.281626 -36.743660 1.758863 84.447980 -39.373901 -32.659089 -3.288433 2.205999 1.028410 -0.474530 0.613740 0.333670 -26.353270 40.598947 8.283739 -24.745503 3.620087 -3.642553 -9.760576 -8.142824 1.219252 3.422549 0.143845 0.068690 0.308620 -0.245960 0.038750 
-3.007130 17.964890 -2.487200 -5.603651 -2.238576 -24.958974 -14.912672 13.494674 3.009250 33.096430 0.654303 5.114075 -4.122734 8.745306 14.793946 0.831398 6.632405 2.469289 0.515930 0.282860 0.387090 18.306436 -11.486442 2.107842 -15.319314 -2.792910 1.451690 9.301186 -9.635869 22.171582 -1.252166 -5.199701 2.647642 -0.382550 0.058530 0.449950 -3.911602 -2.353363 -7.838283 -5.139861 -5.608841 16.047971 -21.297151 2.632956 16.219676 4.876087 -9.905186 -20.165519 -29.901651 7.903235 46.539723 18.938950 -3.308150 -28.677950 16.514365 -29.006498 4.632689 13.824034 -30.104422 -9.957611 72.896891 -37.215855 -25.343135 -3.838200 2.821907 0.903330 -0.404270 0.669750 0.380070 -24.506505 41.750848 10.795132 -28.583591 -4.763911 -7.381149 -16.385098 -6.143904 0.828119 4.008772 -0.194901 0.277090 0.172330 -0.258210 0.131970 
-3.080160 17.946440 -2.587740 -3.408189 -2.748576 -26.833682 -15.951893 14.639213 3.275429 33.655076 1.651379 6.038595 -4.012803 9.071774 14.321926 0.655659 7.384984 2.240715 0.500180 0.185630 0.364860 17.411356 -10.295207 1.497070 -16.209266 -2.071931 3.300412 5.901858 -8.785086 24.868411 -1.082628 -5.215037 2.600023 -0.280680 0.203470 0.484280 -1.236353 -5.707781 -7.175651 -15.196389 -3.896496 15.384392 -14.550343 6.880457 20.023107 4.406988 -10.586852 -18.289449 -31.874324 9.126237 40.885165 13.089880 -2.258660 -26.565580 16.842288 -27.035840 4.103438 17.221519 -25.900461 -12.133952 63.890834 -35.740973 -21.008751 -4.206460 2.961506 0.911980 -0.269470 0.501800 0.311000 -23.991932 41.100281 11.780481 -30.240806 -4.769685 -9.202912 -20.018452 -2.152073 0.120237 3.686410 -0.744730 0.138430 0.267210 -0.079850 0.053740 
-3.137350 17.918910 -2.659240 -3.007399 -1.838794 -25.765563 -16.146329 14.910577 3.215296 33.044284 1.928266 5.123057 -2.884836 8.611400 13.376507 0.472949 7.328998 2.346709 0.553780 0.269690 0.399490 17.300684 -9.937815 1.273847 -16.652650 -1.604250 2.741303 5.481811 -8.576467 25.894299 -1.042619 -5.199638 2.646226 -0.125100 0.314940 0.365400 -0.829802 -6.547291 -6.933905 -18.368388 -2.699746 13.319205 -10.035479 7.373094 22.097461 2.504184 -10.106415 -17.465760 -30.084832 9.853160 40.951584 11.673520 -0.838600 -26.749610 16.878702 -24.653395 3.566833 18.970691 -22.951284 -10.649348 53.197698 -32.947851 -16.024396 -4.042241 2.912106 0.934030 -0.220040 0.449830 0.392000 -21.116752 37.664570 11.560027 -31.297950 0.246090 -8.791377 -19.596161 0.340187 -0.348096 3.112418 -0.909380 -0.025240 0.495520 -0.121320 0.036180 
-3.186280 17.843780 -2.713300 -3.463015 -2.290860 -24.036944 -15.950236 14.626371 3.278668 33.463204 1.924544 4.376844 -3.293644 8.539345 12.664271 0.438203 7.246100 2.361775 0.586990 0.324130 0.366360 17.472858 -10.261851 1.242421 -16.183531 -1.059272 0.044651 3.874871 -8.062326 28.251717 -0.987095 -5.202934 2.631573 -0.063110 0.341150 0.330530 -1.329392 -5.605953 -7.003625 -15.872236 -2.177070 12.759242 -9.693637 6.614337 21.326654 1.835011 -10.611968 -18.548104 -33.188725 12.321735 42.966246 11.015470 -0.913160 -20.747780 15.549602 -23.224679 4.334899 19.062325 -19.133330 -8.438250 45.906440 -32.648344 -13.013024 -3.852174 2.999411 0.879180 -0.190980 0.402970 0.431190 -17.944867 35.818811 12.153409 -30.587934 2.262293 -7.967662 -19.305164 1.731434 -0.529766 2.950140 -1.049515 -0.033310 0.495930 -0.144560 0.059060 
-3.251920 17.719810 -2.713600 -3.224883 -0.119817 -21.697887 -15.853531 14.585864 3.297436 32.818443 1.754033 2.021573 -3.383763 8.335793 12.659244 0.403689 6.980270 2.394182 0.501140 0.296940 0.257900 17.532245 -10.435139 1.204152 -17.259215 -1.000125 -2.039692 3.333588 -8.207038 29.965999 -0.949462 -5.249729 2.613438 -0.091860 0.397220 0.301360 -1.577953 -5.284809 -7.060306 -16.364098 -2.222949 11.569366 -8.530204 5.294061 20.598126 1.310876 -9.713603 -20.382245 -33.429025 15.249372 48.126284 13.447840 -0.236150 -16.240630 15.969702 -20.519348 5.991685 15.644744 -12.083833 -6.129117 42.635394 -36.597777 -12.667121 -3.744977 3.005791 0.838480 -0.160730 0.391270 0.420750 -16.869738 32.048224 13.019557 -26.505240 3.026730 -7.700625 -23.475181 4.355393 -1.057130 2.911270 -1.173281 -0.032730 0.525780 -0.087320 0.099070 
-3.302940 17.554420 -2.723110 -4.316385 0.943121 -18.080851 -15.569445 14.126617 3.410780 33.594967 1.405492 -1.122324 -4.442327 8.535116 12.792419 0.197324 7.106951 2.372345 0.251530 -0.115540 0.238000 17.784437 -10.740067 1.333910 -16.814222 -0.434552 -5.890426 3.482110 -8.413796 31.694825 -0.804923 -5.205163 2.622705 -0.243540 0.559920 0.190600 -2.339736 -4.127356 -7.312479 -11.608208 -3.230593 11.466193 -11.634588 2.806189 16.960470 2.025566 -10.318267 -21.259825 -36.211454 16.507133 49.053223 12.860690 -1.407580 -12.547210 14.125868 -16.314200 7.721674 10.131885 -1.143102 -4.385871 43.080744 -44.459024 -15.021796 -3.627857 2.635275 0.932220 -0.122320 0.241790 0.303050 -15.911570 27.605894 13.299250 -20.293782 3.072361 -8.636622 -31.533600 11.420330 -2.914555 2.808773 -1.220997 -0.272980 0.705010 0.093890 0.011850 
-3.330970 17.393690 -2.751950 -5.911310 1.241222 -14.439736 -15.436592 13.749351 3.551725 34.796183 1.185670 -4.607548 -5.420010 8.869504 13.273711 0.082325 7.231301 2.280295 0.135570 -0.285920 0.130060 17.973596 -10.692332 1.400782 -15.696478 0.165551 -9.692764 4.028933 -8.564919 32.467717 -0.670571 -5.190945 2.633971 -0.281220 0.676570 0.157460 -2.805433 -3.586154 -7.424819 -6.427896 -3.485966 9.995745 -13.549341 1.417435 14.285269 1.941378 -9.960907 -21.002785 -37.446805 19.079332 49.710361 13.215950 -1.395660 -4.719090 12.295421 -13.833613 9.128365 4.583347 4.139962 -3.697749 44.275189 -44.026630 -15.599535 -3.632796 2.555889 0.888480 -0.024660 0.090730 0.278000 -14.120214 23.223897 12.389194 -14.867396 0.394126 -8.758658 -41.799807 23.098234 -6.994375 2.524892 -1.389535 -0.364300 0.701990 0.189250 -0.013070 
-3.398470 17.239140 -2.827780 -5.069879 1.564233 -14.107247 -15.558834 13.772771 3.633950 34.689849 1.320169 -5.953440 -7.367317 9.757034 15.707432 0.062846 7.477449 2.088420 0.215160 -0.283860 0.213440 17.844708 -10.524227 1.536131 -17.082057 0.758456 -11.073836 6.433223 -9.741921 34.080293 -0.766652 -5.577336 2.372117 -0.276940 0.520620 0.228940 -2.457699 -3.761648 -7.654211 -10.248357 -2.339776 14.057708 -9.514046 0.990816 13.254223 1.904079 -9.840779 -20.387001 -36.877385 18.703107 50.633815 14.390780 -2.451380 -5.703920 11.756704 -10.118881 9.883483 -2.369589 12.910069 -5.203871 48.256586 -49.305343 -20.078493 -3.458535 2.679544 0.977660 -0.113870 0.144500 0.238980 -13.257848 19.665839 11.805972 -8.875304 -9.015507 -10.108312 -59.128815 35.438892 -16.370822 2.384130 -1.490538 -0.322210 0.528650 0.161230 -0.082920 
